<svg width="417" height="96" viewBox="0 0 417 96" fill="none" xmlns="http://www.w3.org/2000/svg">
    <path d="M71.6042 22.5C73.5885 22.5 75.5521 22.7292 77.5 23.1875C79.4427 23.6354 80.8854 24.0833 81.8333 24.5417L83.2708 25.2083L79.3333 33.0625C76.625 31.6198 74.0469 30.8958 71.6042 30.8958C70.2552 30.8958 69.2969 31.0417 68.7292 31.3333C68.1562 31.625 67.875 32.1823 67.875 33C67.875 33.1823 67.8958 33.3646 67.9375 33.5417C67.9896 33.724 68.0833 33.8958 68.2083 34.0625C68.3438 34.2188 68.4688 34.349 68.5833 34.4583C68.7083 34.5729 68.901 34.6979 69.1667 34.8333C69.4427 34.974 69.6562 35.0781 69.8125 35.1458C69.9792 35.2031 70.2396 35.3021 70.6042 35.4375C70.9635 35.5781 71.2344 35.6823 71.4167 35.75C71.5938 35.8229 71.8958 35.9271 72.3125 36.0625C72.7396 36.1875 73.0729 36.2708 73.3125 36.3125C74.6979 36.7292 75.9167 37.1875 76.9583 37.6875C78 38.1771 79.0938 38.849 80.25 39.7083C81.401 40.5729 82.2917 41.6562 82.9167 42.9583C83.5521 44.2656 83.875 45.7604 83.875 47.4375C83.875 55.3438 78.3854 59.2917 67.4167 59.2917C64.9271 59.2917 62.5677 58.9062 60.3333 58.1458C58.0938 57.3698 56.4792 56.599 55.4792 55.8333L54 54.6042L58.875 46.4167C59.2344 46.7396 59.7083 47.1146 60.2917 47.5417C60.8854 47.9583 61.9479 48.5417 63.4792 49.2917C65.0208 50.0417 66.3542 50.4167 67.4792 50.4167C69.9635 50.4167 71.2083 49.5781 71.2083 47.8958C71.2083 47.1354 70.8854 46.5365 70.25 46.1042C69.625 45.6771 68.5521 45.1875 67.0417 44.6458C65.526 44.1042 64.3385 43.6146 63.4792 43.1667C61.3125 42.0417 59.5938 40.7708 58.3333 39.3542C57.0677 37.9271 56.4375 36.0365 56.4375 33.6875C56.4375 30.1615 57.7969 27.4167 60.5208 25.4583C63.2552 23.4896 66.9479 22.5 71.6042 22.5Z" fill="#ffffff"/>
    <path d="M119.715 42.5625H94.5064C94.5064 44.9948 95.2981 46.8021 96.8814 47.9792C98.4648 49.1458 100.178 49.7292 102.027 49.7292C103.97 49.7292 105.506 49.474 106.631 48.9583C107.767 48.4323 109.059 47.4062 110.506 45.875L119.173 50.2083C115.559 56.2656 109.553 59.2917 101.152 59.2917C95.9127 59.2917 91.4231 57.5 87.6731 53.9167C83.9231 50.3229 82.0481 45.9948 82.0481 40.9375C82.0481 35.8698 83.9231 31.5312 87.6731 27.9167C91.4231 24.3073 95.9127 22.5 101.152 22.5C106.663 22.5 111.142 24.0938 114.59 27.2708C118.048 30.4531 119.777 35 119.777 40.9167C119.777 41.7396 119.756 42.2865 119.715 42.5625ZM94.8398 35.9167H108.069C107.788 34.1146 107.074 32.724 105.923 31.75C104.767 30.7812 103.288 30.2917 101.486 30.2917C99.496 30.2917 97.9127 30.8125 96.7356 31.8542C95.5689 32.8958 94.9335 34.25 94.8398 35.9167Z" fill="#ffffff"/>
    <path d="M128.929 23.5205L137.387 42.4163L145.866 23.5205H160.096L141.45 58.2705H133.325L114.7 23.5205H128.929Z" fill="#ffffff"/>
    <path d="M192.681 42.5625H167.472C167.472 44.9948 168.264 46.8021 169.847 47.9792C171.431 49.1458 173.144 49.7292 174.993 49.7292C176.936 49.7292 178.472 49.474 179.597 48.9583C180.733 48.4323 182.024 47.4062 183.472 45.875L192.139 50.2083C188.524 56.2656 182.519 59.2917 174.118 59.2917C168.878 59.2917 164.389 57.5 160.639 53.9167C156.889 50.3229 155.014 45.9948 155.014 40.9375C155.014 35.8698 156.889 31.5312 160.639 27.9167C164.389 24.3073 168.878 22.5 174.118 22.5C179.628 22.5 184.108 24.0938 187.556 27.2708C191.014 30.4531 192.743 35 192.743 40.9167C192.743 41.7396 192.722 42.2865 192.681 42.5625ZM167.806 35.9167H181.035C180.753 34.1146 180.04 32.724 178.889 31.75C177.733 30.7812 176.253 30.2917 174.451 30.2917C172.462 30.2917 170.878 30.8125 169.701 31.8542C168.535 32.8958 167.899 34.25 167.806 35.9167Z" fill="#ffffff"/>
    <path d="M193.082 58.2708V23.5208H205.082V27.1667H205.207C208.332 24.0573 211.65 22.5 215.166 22.5C216.884 22.5 218.593 22.7292 220.291 23.1875C221.983 23.6354 223.608 24.3333 225.166 25.2917C226.718 26.2396 227.983 27.5781 228.957 29.3125C229.926 31.0521 230.416 33.0729 230.416 35.375V58.2708H218.416V38.625C218.416 36.8229 217.837 35.2448 216.686 33.8958C215.546 32.5365 214.046 31.8542 212.186 31.8542C210.379 31.8542 208.739 32.5573 207.27 33.9583C205.811 35.349 205.082 36.9062 205.082 38.625V58.2708H193.082Z" fill="#ffffff"/>
    <path d="M232.58 58.2708V0H244.58V27.1667H244.705C247.83 24.0573 251.148 22.5 254.663 22.5C256.382 22.5 258.09 22.7292 259.788 23.1875C261.481 23.6354 263.106 24.3333 264.663 25.2917C266.215 26.2396 267.481 27.5781 268.455 29.3125C269.424 31.0521 269.913 33.0729 269.913 35.375V58.2708H257.913V38.625C257.913 36.8229 257.335 35.2448 256.184 33.8958C255.044 32.5365 253.544 31.8542 251.684 31.8542C249.877 31.8542 248.236 32.5573 246.768 33.9583C245.309 35.349 244.58 36.9062 244.58 38.625V58.2708H232.58Z" fill="#ffffff"/>
    <path d="M307.245 42.5625H282.036C282.036 44.9948 282.828 46.8021 284.411 47.9792C285.995 49.1458 287.708 49.7292 289.557 49.7292C291.5 49.7292 293.036 49.474 294.161 48.9583C295.297 48.4323 296.588 47.4062 298.036 45.875L306.703 50.2083C303.088 56.2656 297.083 59.2917 288.682 59.2917C283.442 59.2917 278.953 57.5 275.203 53.9167C271.453 50.3229 269.578 45.9948 269.578 40.9375C269.578 35.8698 271.453 31.5312 275.203 27.9167C278.953 24.3073 283.442 22.5 288.682 22.5C294.192 22.5 298.672 24.0938 302.12 27.2708C305.578 30.4531 307.307 35 307.307 40.9167C307.307 41.7396 307.286 42.2865 307.245 42.5625ZM282.37 35.9167H295.599C295.317 34.1146 294.604 32.724 293.453 31.75C292.297 30.7812 290.817 30.2917 289.015 30.2917C287.026 30.2917 285.442 30.8125 284.265 31.8542C283.099 32.8958 282.463 34.25 282.37 35.9167Z" fill="#ffffff"/>
    <path d="M310.021 53.9792C306.771 50.4271 305.146 46.0781 305.146 40.9375C305.146 35.7865 306.771 31.4271 310.021 27.8542C313.271 24.2865 317.401 22.5 322.417 22.5C327.026 22.5 330.818 23.9479 333.792 26.8333V23.5208H345.792V58.2708H333.938V54.3333H333.792C330.818 57.6406 327.026 59.2917 322.417 59.2917C317.401 59.2917 313.271 57.5208 310.021 53.9792ZM320.209 35.0417C318.651 36.5729 317.875 38.5365 317.875 40.9375C317.875 43.3281 318.615 45.2812 320.105 46.7917C321.605 48.3073 323.568 49.0625 326 49.0625C328.36 49.0625 330.292 48.3021 331.792 46.7708C333.302 45.2292 334.063 43.2812 334.063 40.9167C334.063 38.5312 333.282 36.5729 331.73 35.0417C330.172 33.5 328.261 32.7292 326 32.7292C323.709 32.7292 321.776 33.5 320.209 35.0417Z" fill="#ffffff"/>
    <path d="M351.01 53.9792C347.76 50.4271 346.135 46.0781 346.135 40.9375C346.135 35.7865 347.76 31.4271 351.01 27.8542C354.26 24.2865 358.39 22.5 363.405 22.5C368.015 22.5 371.806 23.9479 374.78 26.8333V0H386.78V58.2708H374.926V54.3333H374.78C371.806 57.6406 368.015 59.2917 363.405 59.2917C358.39 59.2917 354.26 57.5208 351.01 53.9792ZM361.197 35.0417C359.64 36.5729 358.864 38.5365 358.864 40.9375C358.864 43.3281 359.603 45.2812 361.093 46.7917C362.593 48.3073 364.556 49.0625 366.989 49.0625C369.348 49.0625 371.28 48.3021 372.78 46.7708C374.291 45.2292 375.051 43.2812 375.051 40.9167C375.051 38.5312 374.27 36.5729 372.718 35.0417C371.161 33.5 369.249 32.7292 366.989 32.7292C364.697 32.7292 362.765 33.5 361.197 35.0417Z" fill="#ffffff"/>
    <path d="M404.727 22.5C406.711 22.5 408.675 22.7292 410.623 23.1875C412.566 23.6354 414.008 24.0833 414.956 24.5417L416.394 25.2083L412.456 33.0625C409.748 31.6198 407.17 30.8958 404.727 30.8958C403.378 30.8958 402.42 31.0417 401.852 31.3333C401.279 31.625 400.998 32.1823 400.998 33C400.998 33.1823 401.019 33.3646 401.06 33.5417C401.112 33.724 401.206 33.8958 401.331 34.0625C401.467 34.2188 401.592 34.349 401.706 34.4583C401.831 34.5729 402.024 34.6979 402.289 34.8333C402.566 34.974 402.779 35.0781 402.935 35.1458C403.102 35.2031 403.362 35.3021 403.727 35.4375C404.086 35.5781 404.357 35.6823 404.539 35.75C404.717 35.8229 405.019 35.9271 405.435 36.0625C405.862 36.1875 406.196 36.2708 406.435 36.3125C407.821 36.7292 409.039 37.1875 410.081 37.6875C411.123 38.1771 412.217 38.849 413.373 39.7083C414.524 40.5729 415.414 41.6562 416.039 42.9583C416.675 44.2656 416.998 45.7604 416.998 47.4375C416.998 55.3438 411.508 59.2917 400.539 59.2917C398.05 59.2917 395.691 58.9062 393.456 58.1458C391.217 57.3698 389.602 56.599 388.602 55.8333L387.123 54.6042L391.998 46.4167C392.357 46.7396 392.831 47.1146 393.414 47.5417C394.008 47.9583 395.071 48.5417 396.602 49.2917C398.144 50.0417 399.477 50.4167 400.602 50.4167C403.086 50.4167 404.331 49.5781 404.331 47.8958C404.331 47.1354 404.008 46.5365 403.373 46.1042C402.748 45.6771 401.675 45.1875 400.164 44.6458C398.649 44.1042 397.461 43.6146 396.602 43.1667C394.435 42.0417 392.717 40.7708 391.456 39.3542C390.191 37.9271 389.56 36.0365 389.56 33.6875C389.56 30.1615 390.92 27.4167 393.644 25.4583C396.378 23.4896 400.071 22.5 404.727 22.5Z" fill="#ffffff"/>
    <mask id="mask0_602_463" style="mask-type:luminance" maskUnits="userSpaceOnUse" x="0" y="0" width="41" height="56">
        <path d="M0 0H41V55.8906H0V0Z" fill="white"/>
    </mask>
    <g mask="url(#mask0_602_463)">
        <path d="M41.0364 0V27.3542L0.010376 54.7083V27.3542L41.0364 0Z" fill="#7C898B"/>
    </g>
    <mask id="mask1_602_463" style="mask-type:luminance" maskUnits="userSpaceOnUse" x="0" y="39" width="41" height="57">
        <path d="M0 39.8906H41V95.8906H0V39.8906Z" fill="white"/>
    </mask>
    <g mask="url(#mask1_602_463)">
        <path d="M41.0364 41.0312V68.3802L0.010376 95.7344V68.3802L41.0364 41.0312Z" fill="#253439"/>
    </g>
    <mask id="mask2_602_463" style="mask-type:luminance" maskUnits="userSpaceOnUse" x="0" y="26" width="41" height="44">
        <path d="M0 26.5571H41V69.2238H0V26.5571Z" fill="white"/>
    </mask>
    <g mask="url(#mask2_602_463)">
        <path d="M0.010376 54.7082L41.0364 68.38V41.0311L0.010376 27.354" fill="#A6A6A6"/>
    </g>
</svg>
