<svg width="288" height="88" viewBox="0 0 288 88" fill="none" xmlns="http://www.w3.org/2000/svg">
<path fill-rule="evenodd" clip-rule="evenodd" d="M252.067 43.3718V86.7437H256.936H261.804V43.3718V0H256.936H252.067V43.3718ZM7.13246 7.29524C4.038 8.91901 2.25159 11.6539 1.03963 16.6187C0.101561 20.4627 -0.0165444 22.0612 0.00165829 30.7014C0.0130879 36.062 0.263692 42.0785 0.559168 44.0707C1.61365 51.1866 4.37157 54.285 11.6505 56.5345C13.6448 57.1504 15.5497 58.0432 15.8837 58.5179C16.3544 59.1865 16.5233 62.5656 16.6364 73.5499C16.7989 89.3928 16.5716 88.5263 20.0805 86.6647C22.5738 85.3421 24.6506 81.5829 25.6289 76.6229C26.2389 73.5304 26.4218 70.2663 26.4269 62.3775C26.4353 50.0462 25.9748 45.749 24.2967 42.4976C22.7275 39.4577 21.1083 38.3641 15.4325 36.5132C12.9878 35.715 10.7497 34.8632 10.4585 34.6185C10.0749 34.2959 9.92128 30.7433 9.89969 21.7161C9.88318 14.8653 9.74052 8.56228 9.5822 7.70947C9.33202 6.36348 9.0103 6.30987 7.13246 7.29524ZM12.0459 14.494V23.3916H16.0052C18.1832 23.3916 21.1358 23.6732 22.5666 24.0173L25.1688 24.644V20.7425C25.1688 18.5963 25.0507 14.8566 24.9063 12.4316L24.6439 8.02233L22.2606 7.45801C20.9496 7.14807 18.115 6.60227 15.9616 6.24555L12.0459 5.59643V14.494ZM145.391 46.7831V86.7437H150.471H155.551V46.7831V6.82254H150.471H145.391V46.7831ZM165.287 21.9296V37.0366H161.477H157.667V46.2958V55.5549H161.477H165.287V71.1493V86.7437H170.367H175.447V46.7831V6.82254H170.367H165.287V21.9296ZM37.6211 27.6917C34.8877 29.6624 33.3689 32.1653 32.2992 36.4616C31.3615 40.2296 31.3086 41.3563 31.3357 57.0169C31.367 74.7409 31.596 77.1132 33.7008 81.5049C35.2327 84.7008 36.2525 85.6277 39.5252 86.7973C43.0781 88.0663 53.087 86.425 53.623 84.4864C53.7982 83.8519 53.9443 80.6229 53.9481 77.311L53.9544 71.2897L47.5886 70.9758C42.4965 70.7244 41.1423 70.3696 40.8218 69.2C40.6013 68.3959 40.4184 59.7888 40.4146 50.0725C40.4087 33.0805 40.1775 26.2424 39.6145 26.3808C39.4689 26.4169 38.5719 27.0065 37.6211 27.6917ZM42.612 33.3817C42.7259 39.8573 42.8156 40.4742 43.6851 40.7578C44.9441 41.1701 45.9114 44.518 45.9114 48.4624C45.9114 51.5394 45.8491 51.6563 44.2181 51.6563H42.5248V57.0169V62.3775H48.7252H54.9255L54.6948 50.8367C54.3451 33.3758 53.1493 29.4295 47.5759 27.3476C46.0786 26.7882 44.321 26.3272 43.6703 26.3233L42.4876 26.3155L42.612 33.3817ZM92.7587 27.7638C90.0597 29.3671 88.6598 31.8418 87.5024 37.0561C86.6304 40.9859 86.5508 42.6672 86.5592 56.9799C86.5669 70.1123 86.6947 73.2497 87.3564 76.6064C88.2038 80.9016 89.7142 83.8266 92.0103 85.6199C93.5495 86.8216 103.727 87.1637 107.022 86.1238L108.986 85.5039V78.3266V71.1493H103.14C98.7639 71.1493 97.088 70.8023 96.4729 69.7673C95.7173 68.4973 95.6343 66.74 95.4396 47.9176C95.3232 36.6604 95.1327 27.2473 95.0163 26.9997C94.8999 26.7521 93.8839 27.0962 92.7587 27.7638ZM97.5562 33.4909V40.9352H98.7745C100.302 40.9352 100.83 42.3845 101.19 47.5628L101.474 51.6563H99.5153H97.5562V57.0169V62.3775H103.928H110.3L110.038 53.8493C109.706 43.0327 109.13 36.2257 108.298 33.3027C107.344 29.9519 104.572 27.5104 100.837 26.7307L97.5562 26.0465V33.4909ZM130.152 26.9451C129.57 27.1849 128.569 27.8525 127.929 28.4285C126.797 29.447 126.765 29.6868 126.765 37.0932V44.71L128.141 45.0161L129.517 45.3211L129.631 66.0324L129.745 86.7437H134.605H139.465L139.438 71.8803C139.393 47.0044 138.955 36.8271 137.755 32.7959C137.191 30.8983 136.322 28.9198 135.824 28.3973C134.669 27.1849 131.525 26.3808 130.152 26.9451ZM187.279 27.7131C184.716 29.3428 183.281 31.6254 182.122 35.9187C181.219 39.2598 181.162 40.4966 181.162 56.5296C181.162 72.9251 181.203 73.7526 182.22 77.89C183.942 84.8967 185.512 86.192 192.759 86.5946C196.111 86.7807 199.873 86.6394 201.12 86.2807L203.386 85.6287V78.389V71.1493H197.489C192.694 71.1493 191.469 70.8637 190.928 69.6181C190.372 68.3365 190.263 65.165 190.263 50.247C190.263 33.1 190.034 26.2171 189.469 26.4022C189.324 26.451 188.338 27.0406 187.279 27.7131ZM192.465 33.2511C192.581 39.8612 192.669 40.4732 193.54 40.7578C194.799 41.1701 195.766 44.518 195.766 48.4624C195.766 51.5394 195.704 51.6563 194.073 51.6563H192.38V57.0169V62.3775H198.581H204.783L204.505 51.9C204.352 46.1379 204.038 39.8553 203.807 37.9391C203.008 31.3096 200.447 27.8944 195.421 26.7541L192.34 26.0543L192.465 33.2511ZM216.297 26.8428C216.064 27.0085 214.588 27.4315 213.016 27.7823L210.159 28.4198V35.9168V43.4128L215.979 43.1028C219.43 42.9196 222.059 43.1945 222.435 43.7773C222.959 44.5882 223.095 48.4371 223.212 65.7517L223.355 86.7437H228.036H232.718L232.5 63.0597C232.26 37.1653 232.129 35.6897 229.634 30.8564C228.921 29.4734 227.723 28.1283 226.974 27.8671C225.21 27.2521 216.849 26.45 216.297 26.8428ZM242.843 27.2287C239.854 28.9578 238.255 35.2228 237.58 47.8367C237.233 54.3201 237.243 58.9155 237.618 65.9505C238.511 82.6735 240.079 87.1248 245.083 87.1404C246.48 87.1443 248.146 86.6287 248.787 85.9951C249.917 84.8763 249.951 84.6189 249.951 77.083V69.3238L248.575 69.0178L247.199 68.7127V57.053V45.3942L248.575 44.4859C249.918 43.5989 249.951 43.4459 249.945 38.1136C249.938 31.4519 249.631 28.565 248.856 27.8798C247.659 26.8223 244.193 26.4471 242.843 27.2287ZM271.038 27.8564C267.675 30.2394 266.184 37.1321 266.576 48.4887C266.938 58.9828 268.325 61.8249 274.171 64.0548C276.332 64.8794 278.34 65.9895 278.631 66.5217C278.993 67.1854 279.16 70.7 279.16 77.7145V87.9396L281.171 87.2641C286.306 85.539 288.626 77.0635 287.855 62.8492C287.358 53.6856 285.559 50.6213 279.795 49.1145C275.196 47.9117 275.35 48.3464 275.35 36.5737V26.3155L274.186 26.3837C273.545 26.4208 272.129 27.0835 271.038 27.8564ZM277.466 34.6V42.8845H280.159C281.64 42.8845 283.735 43.1633 284.815 43.5044L286.779 44.1243V36.3222V28.5202L283.047 27.4178C276.978 25.6254 277.466 24.9958 277.466 34.6ZM59.4614 46.0521C60.7906 56.3717 62.5008 69.7487 63.2623 75.7789L64.647 86.7437L68.5081 86.7291C70.6315 86.7203 72.5817 86.3918 72.8416 85.9981C73.2865 85.3246 72.1338 74.3393 67.6788 36.793L66.5511 27.2901H61.7977H57.0442L59.4614 46.0521ZM74.2635 32.8944C73.9918 35.9772 73.4025 42.1779 72.9534 46.6749L72.1372 54.8512L73.8813 69.5791C74.8405 77.6795 75.735 84.7164 75.8692 85.2164C76.2146 86.5059 76.7844 82.4864 83.842 28.9958C84.0468 27.4432 83.6489 27.2901 79.4119 27.2901H74.7571L74.2635 32.8944ZM115.336 57.0169V86.7437H119.992H124.649V57.0169V27.2901H119.992H115.336V57.0169ZM213.545 52.5628C209.871 54.2548 209.15 56.8931 209.134 68.7127C209.124 75.2389 209.31 78.2915 209.859 80.6356C211.257 86.6102 214.898 88.9347 218.784 86.3343L221.165 84.7398V79.0274V73.3159L219.687 72.6766C218.063 71.9758 217.467 69.2721 217.953 64.8141C218.172 62.7985 218.473 62.3775 219.692 62.3775H221.165V57.0169V51.6563L218.096 51.7684C216.408 51.8298 214.36 52.1875 213.545 52.5628ZM0.616316 76.3656C0.616316 86.1969 0.733152 86.3567 8.55353 87.2495L14.5858 87.9376V79.0557V70.1747H8.92394C5.81001 70.1747 2.66687 69.9008 1.93919 69.5655L0.616316 68.9564V76.3656ZM267.307 77.4153C267.307 84.6472 267.907 86.7398 269.983 86.7505C270.723 86.7544 272.614 87.037 274.186 87.3792L277.043 88V79.5751V71.1493H272.175H267.307V77.4153Z" fill="black"/>
</svg>
