<svg width="288" height="38" viewBox="0 0 288 38" fill="none" xmlns="http://www.w3.org/2000/svg">
<path fill-rule="evenodd" clip-rule="evenodd" d="M252.067 18.7287V37.4575H256.936H261.804V18.7287V0H256.936H252.067V18.7287ZM7.13246 3.15022C4.038 3.85139 2.25159 5.03235 1.03963 7.17627C0.101561 8.83618 -0.0165444 9.52641 0.00165829 13.2574C0.0130879 15.5722 0.263692 18.1703 0.559168 19.0305C1.61365 22.1033 4.37157 23.4412 11.6505 24.4126C13.6448 24.6786 15.5497 25.0641 15.8837 25.2691C16.3544 25.5578 16.5233 27.017 16.6364 31.7602C16.7989 38.6014 16.5716 38.2273 20.0805 37.4234C22.5738 36.8523 24.6506 35.229 25.6289 33.0872C26.2389 31.7518 26.4218 30.3423 26.4269 26.9357C26.4353 21.6109 25.9748 19.7553 24.2967 18.3512C22.7275 17.0385 21.1083 16.5663 15.4325 15.7671C12.9878 15.4224 10.7497 15.0545 10.4585 14.9489C10.0749 14.8096 9.92128 13.2755 9.89969 9.37742C9.88318 6.41912 9.74052 3.69735 9.5822 3.32909C9.33202 2.74787 9.0103 2.72472 7.13246 3.15022ZM12.0459 6.25877V10.1009H16.0052C18.1832 10.1009 21.1358 10.2225 22.5666 10.3711L25.1688 10.6417V8.95697C25.1688 8.03021 25.0507 6.41533 24.9063 5.36821L24.6439 3.46419L22.2606 3.2205C20.9496 3.08667 18.115 2.85098 15.9616 2.69694L12.0459 2.41664V6.25877ZM145.391 20.2018V37.4575H150.471H155.551V20.2018V2.9461H150.471H145.391V20.2018ZM165.287 9.46959V15.9931H161.477H157.667V19.9914V23.9896H161.477H165.287V30.7236V37.4575H170.367H175.447V20.2018V2.9461H170.367H165.287V9.46959ZM37.6211 11.9578C34.8877 12.8088 33.3689 13.8896 32.2992 15.7448C31.3615 17.3719 31.3086 17.8584 31.3357 24.6209C31.367 32.2745 31.596 33.2989 33.7008 35.1953C35.2327 36.5754 36.2525 36.9756 39.5252 37.4806C43.0781 38.0286 53.087 37.3199 53.623 36.4828C53.7982 36.2088 53.9443 34.8144 53.9481 33.3843L53.9544 30.7842L47.5886 30.6486C42.4965 30.5401 41.1423 30.3869 40.8218 29.8818C40.6013 29.5346 40.4184 25.8179 40.4146 21.6222C40.4087 14.2848 40.1775 11.3319 39.6145 11.3917C39.4689 11.4073 38.5719 11.6619 37.6211 11.9578ZM42.612 14.4148C42.7259 17.2111 42.8156 17.4775 43.6851 17.6C44.9441 17.778 45.9114 19.2237 45.9114 20.927C45.9114 22.2556 45.8491 22.3061 44.2181 22.3061H42.5248V24.6209V26.9357H48.7252H54.9255L54.6948 21.9522C54.3451 14.4123 53.1493 12.7082 47.5759 11.8092C46.0786 11.5676 44.321 11.3686 43.6703 11.3669L42.4876 11.3635L42.612 14.4148ZM92.7587 11.9889C90.0597 12.6813 88.6597 13.7498 87.5024 16.0015C86.6304 17.6985 86.5508 18.4245 86.5592 24.6049C86.5669 30.2758 86.6947 31.6305 87.3564 33.08C88.2038 34.9348 89.7142 36.1978 92.0103 36.9722C93.5495 37.4912 103.727 37.6389 107.022 37.1898L108.986 36.9221V33.8229V30.7236H103.14C98.7639 30.7236 97.088 30.5737 96.4729 30.1268C95.7173 29.5784 95.6343 28.8195 95.4396 20.6917C95.3232 15.8306 95.1327 11.7659 95.0163 11.659C94.8999 11.5521 93.8839 11.7006 92.7587 11.9889ZM97.5562 14.462V17.6766H98.7745C100.302 17.6766 100.83 18.3024 101.19 20.5385L101.474 22.3061H99.5153H97.5562V24.6209V26.9357H103.928H110.3L110.038 23.2531C109.706 18.5823 109.13 15.6429 108.298 14.3807C107.344 12.9338 104.572 11.8795 100.837 11.5428L97.5562 11.2473V14.462ZM130.152 11.6354C129.57 11.7389 128.569 12.0272 127.929 12.276C126.797 12.7158 126.765 12.8193 126.765 16.0175V19.3066L128.141 19.4388L129.517 19.5705L129.631 28.514L129.745 37.4575H134.605H139.465L139.438 31.0392C139.393 20.2973 138.955 15.9026 137.755 14.1619C137.191 13.3424 136.322 12.4881 135.824 12.2625C134.669 11.7389 131.525 11.3917 130.152 11.6354ZM187.279 11.967C184.716 12.6707 183.281 13.6564 182.122 15.5104C181.219 16.9531 181.162 17.4872 181.162 24.4105C181.162 31.4904 181.203 31.8477 182.22 33.6343C183.942 36.6599 185.512 37.2193 192.759 37.3931C196.111 37.4735 199.873 37.4125 201.12 37.2576L203.386 36.976V33.8498V30.7236H197.489C192.694 30.7236 191.469 30.6003 190.928 30.0624C190.372 29.5089 190.263 28.1394 190.263 21.6976C190.263 14.2932 190.034 11.321 189.469 11.401C189.324 11.422 188.338 11.6766 187.279 11.967ZM192.465 14.3584C192.581 17.2128 192.669 17.4771 193.54 17.6C194.799 17.778 195.766 19.2237 195.766 20.927C195.766 22.2556 195.704 22.3061 194.073 22.3061H192.379V24.6209V26.9357H198.581H204.783L204.505 22.4114C204.352 19.9232 204.038 17.2102 203.807 16.3828C203.008 13.5201 200.447 12.0453 195.421 11.5529L192.34 11.2507L192.465 14.3584ZM216.297 11.5912C216.064 11.6627 214.588 11.8454 213.016 11.9969L210.159 12.2722V15.5095V18.7464L215.979 18.6126C219.43 18.5335 222.059 18.6522 222.435 18.9038C222.959 19.254 223.095 20.916 223.212 28.3928L223.355 37.4575H228.036H232.718L232.5 27.2303C232.26 16.0486 232.129 15.4114 229.634 13.3243C228.921 12.7271 227.723 12.1463 226.974 12.0335C225.21 11.768 216.849 11.4216 216.297 11.5912ZM242.843 11.7579C239.854 12.5045 238.255 15.2098 237.58 20.6568C237.233 23.4564 237.243 25.4408 237.618 28.4786C238.511 35.6999 240.079 37.6221 245.083 37.6288C246.48 37.6305 248.146 37.4078 248.787 37.1343C249.917 36.6511 249.951 36.54 249.951 33.2858V29.9353L248.575 29.8031L247.199 29.6714V24.6365V19.6021L248.575 19.2098C249.918 18.8268 249.951 18.7607 249.945 16.4582C249.938 13.5815 249.631 12.3349 248.856 12.039C247.659 11.5824 244.193 11.4203 242.843 11.7579ZM271.038 12.0289C267.675 13.0579 266.184 16.0343 266.576 20.9383C266.938 25.4698 268.325 26.6971 274.171 27.66C276.332 28.0161 278.34 28.4955 278.631 28.7253C278.993 29.0119 279.16 30.5295 279.16 33.5586V37.9739L281.171 37.6822C286.306 36.9373 288.626 33.2774 287.855 27.1394C287.358 23.1824 285.559 21.8592 279.795 21.2085C275.196 20.6892 275.35 20.8769 275.35 15.7932V11.3635L274.186 11.393C273.545 11.409 272.129 11.6952 271.038 12.0289ZM277.466 14.9409V18.5183H280.159C281.64 18.5183 283.735 18.6387 284.815 18.786L286.779 19.0537V15.6846V12.3155L283.047 11.8395C276.978 11.0655 277.466 10.7937 277.466 14.9409ZM59.4614 19.8861C60.7906 24.3423 62.5008 30.1188 63.2623 32.7227L64.647 37.4575L68.5081 37.4512C70.6315 37.4474 72.5817 37.3056 72.8416 37.1355C73.2865 36.8447 72.1338 32.1011 67.6788 15.8879L66.5511 11.7844H61.7977H57.0442L59.4614 19.8861ZM74.2635 14.2044C73.9918 15.5356 73.4025 18.2132 72.9534 20.1551L72.1372 23.6858L73.8813 30.0455C74.8405 33.5434 75.735 36.5821 75.8692 36.798C76.2146 37.3548 76.7844 35.6191 83.842 12.5209C84.0468 11.8505 83.6489 11.7844 79.4119 11.7844H74.7571L74.2635 14.2044ZM115.336 24.6209V37.4575H119.992H124.649V24.6209V11.7844H119.992H115.336V24.6209ZM213.545 22.6976C209.871 23.4282 209.15 24.5675 209.134 29.6714C209.124 32.4895 209.31 33.8077 209.859 34.8199C211.257 37.3998 214.898 38.4036 218.784 37.2807L221.165 36.5922V34.1255V31.6592L219.687 31.3831C218.063 31.0805 217.467 29.913 217.953 27.9879C218.172 27.1175 218.473 26.9357 219.692 26.9357H221.165V24.6209V22.3061L218.096 22.3545C216.408 22.3811 214.36 22.5355 213.545 22.6976ZM0.616316 32.9761C0.616316 37.2214 0.733152 37.2904 8.55353 37.6759L14.5858 37.9731V34.1377V30.3027H8.92394C5.81001 30.3027 2.66687 30.1844 1.93919 30.0396L0.616316 29.7766V32.9761ZM267.307 33.4293C267.307 36.5522 267.907 37.4558 269.983 37.4604C270.723 37.4621 272.614 37.5842 274.186 37.7319L277.043 38V34.362V30.7236H272.175H267.307V33.4293Z" fill="white"/>
</svg>
