<svg width="324" height="43" viewBox="0 0 324 43" fill="none" xmlns="http://www.w3.org/2000/svg">
<path fill-rule="evenodd" clip-rule="evenodd" d="M283.576 21.1931V42.3861H289.053H294.529V21.1931V0H289.053H283.576V21.1931ZM8.02401 3.56472C4.54275 4.35815 2.53304 5.6945 1.16959 8.12051C0.114256 9.99884 -0.0186124 10.7799 0.00186558 15.0018C0.0147239 17.6212 0.296654 20.5611 0.629064 21.5345C1.81536 25.0116 4.91802 26.5256 13.1068 27.6248C15.3504 27.9258 17.4934 28.362 17.8692 28.594C18.3988 28.9207 18.5888 30.5718 18.7159 35.9391C18.8988 43.6806 18.6431 43.2572 22.5906 42.3475C25.3956 41.7013 27.732 39.8644 28.8325 37.4407C29.5188 35.9296 29.7245 34.3347 29.7302 30.4799C29.7398 24.4544 29.2216 22.3546 27.3338 20.7659C25.5684 19.2804 23.7468 18.7461 17.3615 17.8417C14.6113 17.4516 12.0934 17.0354 11.7658 16.9159C11.3343 16.7582 11.1614 15.0223 11.1371 10.6113C11.1186 7.26374 10.9581 4.18384 10.78 3.76713C10.4985 3.10943 10.1366 3.08323 8.02401 3.56472ZM13.5516 7.08229V11.43H18.0059C20.4561 11.43 23.7778 11.5676 25.3875 11.7357L28.3149 12.0419V10.1355C28.3149 9.08682 28.182 7.25946 28.0196 6.07455L27.7243 3.92L25.0432 3.64425C23.5683 3.49281 20.3794 3.22611 17.9568 3.0518L13.5516 2.73462V7.08229ZM163.565 22.8599V42.3861H169.28H174.995V22.8599V3.33374H169.28H163.565V22.8599ZM185.948 10.7156V18.0974H181.662H177.376V22.6218V27.1462H181.662H185.948V34.7661V42.3861H191.663H197.378V22.8599V3.33374H191.663H185.948V10.7156ZM42.3237 13.5312C39.2487 14.4941 37.54 15.7172 36.3365 17.8165C35.2817 19.6576 35.2222 20.2082 35.2526 27.8605C35.2879 36.5211 35.5455 37.6803 37.9134 39.8263C39.6368 41.3879 40.7841 41.8408 44.4658 42.4123C48.4629 43.0324 59.7229 42.2304 60.3258 41.2831C60.523 40.9731 60.6873 39.3953 60.6916 37.777L60.6987 34.8347L53.5371 34.6814C47.8085 34.5585 46.2851 34.3851 45.9245 33.8136C45.6764 33.4207 45.4707 29.215 45.4664 24.4673C45.4597 16.1643 45.1997 12.823 44.5663 12.8906C44.4025 12.9082 43.3934 13.1964 42.3237 13.5312ZM47.9385 16.3115C48.0666 19.4757 48.1676 19.7772 49.1458 19.9158C50.5621 20.1172 51.6503 21.7531 51.6503 23.6805C51.6503 25.184 51.5803 25.2412 49.7454 25.2412H47.8404V27.8605V30.4799H54.8158H61.7912L61.5317 24.8406C61.1383 16.3087 59.7929 14.3803 53.5228 13.3631C51.8384 13.0897 49.8611 12.8644 49.1291 12.8625L47.7985 12.8587L47.9385 16.3115ZM104.354 13.5664C101.317 14.3498 99.7422 15.559 98.4402 18.107C97.4592 20.0272 97.3696 20.8487 97.3792 27.8424C97.3877 34.2594 97.5315 35.7925 98.2759 37.4327C99.2293 39.5315 100.929 40.9607 103.512 41.837C105.243 42.4242 116.693 42.5914 120.399 42.0832L122.609 41.7803V38.2732V34.7661H116.033C111.109 34.7661 109.224 34.5966 108.532 34.0908C107.682 33.4703 107.589 32.6116 107.37 23.4143C107.239 17.9136 107.024 13.314 106.893 13.193C106.762 13.0721 105.619 13.2402 104.354 13.5664ZM109.751 16.3648V20.0024H111.121C112.84 20.0024 113.434 20.7106 113.839 23.2409L114.159 25.2412H111.955H109.751V27.8605V30.4799H116.919H124.087L123.793 26.3127C123.42 21.0273 122.771 17.7012 121.835 16.2729C120.762 14.6356 117.644 13.4426 113.442 13.0616L109.751 12.7273V16.3648ZM146.421 13.1664C145.766 13.2835 144.641 13.6098 143.92 13.8912C142.647 14.3889 142.611 14.5061 142.611 18.1251V21.8469L144.159 21.9965L145.706 22.1456L145.835 32.2658L145.963 42.3861H151.431H156.898L156.868 35.1233C156.817 22.968 156.324 17.995 154.974 16.0253C154.339 15.098 153.362 14.1312 152.802 13.876C151.502 13.2835 147.965 12.8906 146.421 13.1664ZM210.689 13.5416C207.806 14.3379 206.191 15.4533 204.887 17.5512C203.872 19.1838 203.807 19.7881 203.807 27.6224C203.807 35.6339 203.853 36.0382 204.997 38.0599C206.935 41.4836 208.701 42.1166 216.854 42.3132C220.625 42.4042 224.857 42.3352 226.26 42.1599L228.809 41.8413V38.3037V34.7661H222.176C216.78 34.7661 215.403 34.6266 214.794 34.018C214.168 33.3917 214.046 31.842 214.046 24.5525C214.046 16.1739 213.788 12.8106 213.153 12.9011C212.989 12.9249 211.88 13.213 210.689 13.5416ZM216.524 16.2477C216.654 19.4776 216.752 19.7767 217.732 19.9158C219.149 20.1172 220.237 21.7531 220.237 23.6805C220.237 25.184 220.167 25.2412 218.332 25.2412H216.427V27.8605V30.4799H223.404H230.381L230.068 25.3602C229.896 22.5447 229.542 19.4748 229.283 18.5384C228.384 15.299 225.503 13.6302 219.849 13.073L216.383 12.7311L216.524 16.2477ZM243.334 13.1164C243.072 13.1973 241.411 13.404 239.643 13.5755L236.429 13.8869V17.5502V21.2131L242.977 21.0616C246.858 20.9721 249.816 21.1064 250.24 21.3912C250.829 21.7874 250.982 23.6681 251.114 32.1287L251.274 42.3861H256.541H261.808L261.562 30.8133C261.293 18.1603 261.145 17.4393 258.338 15.0776C257.536 14.4018 256.189 13.7445 255.345 13.6169C253.361 13.3164 243.955 12.9244 243.334 13.1164ZM273.198 13.305C269.836 14.1498 268.036 17.2111 267.277 23.3748C266.887 26.5428 266.898 28.7883 267.321 32.2258C268.325 40.3973 270.089 42.5723 275.718 42.5799C277.29 42.5819 279.164 42.3299 279.885 42.0204C281.157 41.4736 281.195 41.3479 281.195 37.6655V33.8741L279.647 33.7246L278.099 33.5755V27.8782V22.1813L279.647 21.7374C281.158 21.304 281.195 21.2293 281.188 18.6237C281.18 15.3685 280.835 13.9579 279.963 13.6231C278.617 13.1064 274.717 12.923 273.198 13.305ZM304.917 13.6117C301.134 14.7761 299.457 18.1441 299.898 23.6934C300.305 28.8211 301.866 30.2099 308.442 31.2995C310.874 31.7024 313.132 32.2449 313.459 32.5049C313.868 32.8292 314.055 34.5466 314.055 37.9741V42.9705L316.317 42.6404C322.095 41.7975 324.705 37.656 323.837 30.7104C323.278 26.2327 321.254 24.7354 314.769 23.9991C309.595 23.4114 309.769 23.6238 309.769 17.8712V12.8587L308.459 12.892C307.738 12.9101 306.145 13.234 304.917 13.6117ZM312.15 16.9068V20.9549H315.179C316.845 20.9549 319.202 21.0911 320.417 21.2578L322.627 21.5607V17.7484V13.936L318.428 13.3973C311.6 12.5215 312.15 12.2139 312.15 16.9068ZM66.894 22.5027C68.3894 27.5453 70.3134 34.0818 71.1701 37.0283L72.7279 42.3861L77.0716 42.379C79.4604 42.3747 81.6544 42.2142 81.9468 42.0218C82.4473 41.6927 81.1506 36.3249 76.1387 17.9784L74.87 13.335H69.5224H64.1747L66.894 22.5027ZM83.5465 16.0734C83.2407 17.5798 82.5778 20.6097 82.0725 22.8071L81.1544 26.8023L83.1164 33.9989C84.1956 37.957 85.2019 41.3955 85.3528 41.6398C85.7414 42.2699 86.3825 40.3059 94.3222 14.1684C94.5527 13.4097 94.105 13.335 89.3384 13.335H84.1018L83.5465 16.0734ZM129.753 27.8605V42.3861H134.991H140.23V27.8605V13.335H134.991H129.753V27.8605ZM240.239 25.6841C236.105 26.5108 235.294 27.8001 235.275 33.5755C235.265 36.7645 235.474 38.2561 236.091 39.4015C237.665 42.3209 241.76 43.4567 246.132 42.1861L248.811 41.4069V38.6157V35.8248L247.148 35.5124C245.32 35.17 244.65 33.8489 245.197 31.6705C245.444 30.6856 245.782 30.4799 247.153 30.4799H248.811V27.8605V25.2412L245.358 25.2959C243.459 25.3259 241.155 25.5007 240.239 25.6841ZM0.693356 37.315C0.693356 42.1189 0.824796 42.197 9.62273 42.6333L16.409 42.9695V38.6295V34.2899H10.0394C6.53626 34.2899 3.00023 34.1561 2.18158 33.9922L0.693356 33.6946V37.315ZM300.72 37.8279C300.72 41.3617 301.395 42.3842 303.73 42.3894C304.563 42.3914 306.691 42.5295 308.459 42.6966L311.674 43V38.8833V34.7661H306.197H300.72V37.8279Z" fill="#BFC5CC"/>
</svg>
