<svg width="288" height="39" viewBox="0 0 288 39" fill="none" xmlns="http://www.w3.org/2000/svg">
<path fill-rule="evenodd" clip-rule="evenodd" d="M252.067 19.2216V38.4432H256.936H261.804V19.2216V0H256.936H252.067V19.2216ZM7.13246 3.23312C4.038 3.95274 2.25159 5.16478 1.03963 7.36512C0.101561 9.06871 -0.0165444 9.7771 0.00165829 13.6063C0.0130879 15.982 0.263692 18.6484 0.559168 19.5313C1.61365 22.685 4.37157 24.0581 11.6505 25.055C13.6448 25.328 15.5497 25.7237 15.8837 25.9341C16.3544 26.2304 16.5233 27.7279 16.6364 32.596C16.7989 39.6172 16.5716 39.2333 20.0805 38.4082C22.5738 37.8221 24.6506 36.1561 25.6289 33.9579C26.2389 32.5873 26.4218 31.1407 26.4269 27.6446C26.4353 22.1796 25.9748 20.2751 24.2967 18.8342C22.7275 17.4869 21.1083 17.0023 15.4325 16.182C12.9878 15.8282 10.7497 15.4507 10.4585 15.3423C10.0749 15.1993 9.92128 13.6249 9.89969 9.62419C9.88318 6.58804 9.74052 3.79465 9.5822 3.4167C9.33202 2.82018 9.0103 2.79642 7.13246 3.23312ZM12.0459 6.42347V10.3667H16.0052C18.1832 10.3667 21.1358 10.4915 22.5666 10.644L25.1688 10.9218V9.19268C25.1688 8.24154 25.0507 6.58416 24.9063 5.50947L24.6439 3.55535L22.2606 3.30525C20.9496 3.16789 18.115 2.926 15.9616 2.76791L12.0459 2.48024V6.42347ZM145.391 20.7334V38.4432H150.471H155.551V20.7334V3.02362H150.471H145.391V20.7334ZM165.287 9.71879V16.414H161.477H157.667V20.5174V24.6209H161.477H165.287V31.5321V38.4432H170.367H175.447V20.7334V3.02362H170.367H165.287V9.71879ZM37.6211 12.2725C34.8877 13.1459 33.3689 14.2551 32.2992 16.1591C31.3615 17.829 31.3086 18.3283 31.3357 25.2689C31.367 33.1238 31.596 34.1752 33.7008 36.1215C35.2327 37.5379 36.2525 37.9486 39.5252 38.467C43.0781 39.0294 53.087 38.302 53.623 37.4428C53.7982 37.1616 53.9443 35.7306 53.9481 34.2628L53.9544 31.5943L47.5886 31.4552C42.4965 31.3438 41.1423 31.1865 40.8218 30.6682C40.6013 30.3118 40.4184 26.4973 40.4146 22.1912C40.4087 14.6607 40.1775 11.6302 39.6145 11.6915C39.4689 11.7075 38.5719 11.9688 37.6211 12.2725ZM42.612 14.7942C42.7259 17.664 42.8156 17.9374 43.6851 18.0631C44.9441 18.2458 45.9114 19.7296 45.9114 21.4777C45.9114 22.8413 45.8491 22.8932 44.2181 22.8932H42.5248V25.2689V27.6446H48.7252H54.9255L54.6948 22.5299C54.3451 14.7916 53.1493 13.0426 47.5759 12.12C46.0786 11.872 44.321 11.6677 43.6703 11.666L42.4876 11.6626L42.612 14.7942ZM92.7587 12.3044C90.0597 13.015 88.6597 14.1117 87.5024 16.4226C86.6304 18.1642 86.5508 18.9093 86.5592 25.2524C86.5669 31.0725 86.6947 32.4629 87.3564 33.9505C88.2038 35.8541 89.7142 37.1504 92.0103 37.9452C93.5495 38.4778 103.727 38.6294 107.022 38.1685L108.986 37.8938V34.7129V31.5321H103.14C98.7639 31.5321 97.088 31.3783 96.4729 30.9196C95.7173 30.3568 95.6343 29.578 95.4396 21.2362C95.3232 16.2472 95.1327 12.0755 95.0163 11.9658C94.8999 11.8561 93.8839 12.0085 92.7587 12.3044ZM97.5562 14.8425V18.1417H98.7745C100.302 18.1417 100.83 18.7841 101.19 21.079L101.474 22.8932H99.5153H97.5562V25.2689V27.6446H103.928H110.3L110.038 23.865C109.706 19.0713 109.13 16.0546 108.298 14.7592C107.344 13.2741 104.572 12.1921 100.837 11.8466L97.5562 11.5433V14.8425ZM130.152 11.9416C129.57 12.0478 128.569 12.3437 127.929 12.599C126.797 13.0504 126.765 13.1567 126.765 16.439V19.8147L128.141 19.9503L129.517 20.0855L129.631 29.2644L129.745 38.4432H134.605H139.465L139.438 31.856C139.393 20.8315 138.955 16.3211 137.755 14.5346C137.191 13.6936 136.322 12.8167 135.824 12.5852C134.669 12.0478 131.525 11.6915 130.152 11.9416ZM187.279 12.282C184.716 13.0042 183.281 14.0158 182.122 15.9185C181.219 17.3992 181.162 17.9474 181.162 25.0529C181.162 32.3191 181.203 32.6858 182.22 34.5194C183.942 37.6247 185.512 38.1987 192.759 38.3771C196.111 38.4596 199.873 38.397 201.12 38.238L203.386 37.9491V34.7406V31.5321H197.489C192.694 31.5321 191.469 31.4055 190.928 30.8535C190.372 30.2855 190.263 28.8799 190.263 22.2686C190.263 14.6693 190.034 11.6189 189.469 11.701C189.324 11.7226 188.338 11.9839 187.279 12.282ZM192.465 14.7363C192.581 17.6657 192.669 17.937 193.54 18.0631C194.799 18.2458 195.766 19.7296 195.766 21.4777C195.766 22.8413 195.704 22.8932 194.073 22.8932H192.379V25.2689V27.6446H198.581H204.783L204.505 23.0011C204.352 20.4475 204.038 17.6631 203.807 16.8139C203.008 13.8758 200.447 12.3623 195.421 11.8569L192.34 11.5468L192.465 14.7363ZM216.297 11.8962C216.064 11.9697 214.588 12.1571 213.016 12.3126L210.159 12.5951V15.9177V19.2398L215.979 19.1024C219.43 19.0212 222.059 19.143 222.435 19.4013C222.959 19.7607 223.095 21.4664 223.212 29.14L223.355 38.4432H228.036H232.718L232.5 27.9469C232.26 16.471 232.129 15.817 229.634 13.675C228.921 13.0621 227.723 12.466 226.974 12.3502C225.21 12.0777 216.849 11.7222 216.297 11.8962ZM242.843 12.0673C239.854 12.8336 238.255 15.6101 237.58 21.2004C237.233 24.0737 237.243 26.1103 237.618 29.2281C238.511 36.6394 240.079 38.6121 245.083 38.619C246.48 38.6208 248.146 38.3923 248.787 38.1115C249.917 37.6156 249.951 37.5016 249.951 34.1618V30.723L248.575 30.5874L247.199 30.4522V25.2848V20.1179L248.575 19.7153C249.918 19.3223 249.951 19.2544 249.945 16.8913C249.938 13.9389 249.631 12.6595 248.856 12.3558C247.659 11.8872 244.193 11.7209 242.843 12.0673ZM271.038 12.3455C267.675 13.4016 266.184 16.4563 266.576 21.4893C266.938 26.1401 268.325 27.3997 274.171 28.3879C276.332 28.7534 278.34 29.2454 278.631 29.4812C278.993 29.7754 279.16 31.333 279.16 34.4417V38.9732L281.171 38.6739C286.306 37.9093 288.626 34.1531 287.855 27.8536C287.358 23.7925 285.559 22.4344 279.795 21.7666C275.196 21.2336 275.35 21.4263 275.35 16.2088V11.6626L274.186 11.6928C273.545 11.7092 272.129 12.0029 271.038 12.3455ZM277.466 15.3341V19.0056H280.159C281.64 19.0056 283.735 19.1292 284.815 19.2804L286.779 19.5551V16.0973V12.6396L283.047 12.1511C276.978 11.3567 277.466 11.0777 277.466 15.3341ZM59.4614 20.4095C60.7906 24.9829 62.5008 30.9114 63.2623 33.5838L64.647 38.4432L68.5081 38.4367C70.6315 38.4329 72.5817 38.2873 72.8416 38.1128C73.2865 37.8143 72.1338 32.9458 67.6788 16.306L66.5511 12.0945H61.7977H57.0442L59.4614 20.4095ZM74.2635 14.5782C73.9918 15.9444 73.4025 18.6925 72.9534 20.6855L72.1372 24.3091L73.8813 30.8362C74.8405 34.4261 75.735 37.5448 75.8692 37.7664C76.2146 38.3378 76.7844 36.5565 83.842 12.8504C84.0468 12.1623 83.6489 12.0945 79.4119 12.0945H74.7571L74.2635 14.5782ZM115.336 25.2689V38.4432H119.992H124.649V25.2689V12.0945H119.992H115.336V25.2689ZM213.545 23.2949C209.871 24.0447 209.15 25.214 209.134 30.4522C209.124 33.3445 209.31 34.6974 209.859 35.7362C211.257 38.384 214.898 39.4142 218.784 38.2618L221.165 37.5551V35.0235V32.4923L219.687 32.2089C218.063 31.8984 217.467 30.7002 217.953 28.7244C218.172 27.8312 218.473 27.6446 219.692 27.6446H221.165V25.2689V22.8932L218.096 22.9428C216.408 22.97 214.36 23.1286 213.545 23.2949ZM0.616316 33.8439C0.616316 38.2009 0.733152 38.2717 8.55353 38.6674L14.5858 38.9724V35.036V31.1001H8.92394C5.81001 31.1001 2.66687 30.9788 1.93919 30.8302L0.616316 30.5602V33.8439ZM267.307 34.3091C267.307 37.5141 267.907 38.4415 269.983 38.4462C270.723 38.448 272.614 38.5732 274.186 38.7249L277.043 39V35.2663V31.5321H272.175H267.307V34.3091Z" fill="gray"/>
</svg>
