<svg width="324" height="104" viewBox="0 0 324 104" fill="none" xmlns="http://www.w3.org/2000/svg">
<path fill-rule="evenodd" clip-rule="evenodd" d="M283.576 51.2576V102.515H289.052H294.529V51.2576V0H289.052H283.576V51.2576ZM8.02401 8.62165C4.54275 10.5406 2.53304 13.7727 1.16959 19.6403C0.114256 24.1832 -0.0186124 26.0723 0.00186558 36.2835C0.0147239 42.6187 0.296654 49.7291 0.629064 52.0835C1.81536 60.4932 4.91802 64.155 13.1068 66.8134C15.3504 67.5414 17.4934 68.5965 17.8692 69.1575C18.3988 69.9477 18.5888 73.9411 18.7159 86.9226C18.8988 105.646 18.6431 104.622 22.5906 102.422C25.3956 100.859 27.732 96.4162 28.8325 90.5544C29.5188 86.8995 29.7245 83.042 29.7302 73.7188C29.7398 59.1455 29.2216 54.067 27.3338 50.2244C25.5684 46.6318 23.7468 45.3394 17.3615 43.152C14.6113 42.2086 12.0934 41.2019 11.7658 40.9128C11.3343 40.5315 11.1614 36.333 11.1371 25.6645C11.1186 17.5681 10.9581 10.1191 10.78 9.11119C10.4985 7.52047 10.1366 7.45712 8.02401 8.62165ZM13.5517 17.1293V27.6446H18.0059C20.4561 27.6446 23.7778 27.9774 25.3875 28.3841L28.3149 29.1247V24.5138C28.3149 21.9774 28.182 17.5578 28.0196 14.6919L27.7243 9.48093L25.0432 8.81401C23.5683 8.44772 20.3794 7.80268 17.9568 7.3811L13.5517 6.61396V17.1293ZM163.565 55.2891V102.515H169.28H174.995V55.2891V8.063H169.28H163.565V55.2891ZM185.948 25.9168V43.7706H181.662H177.376V54.7132V65.6558H181.662H185.948V84.0855V102.515H191.663H197.378V55.2891V8.063H191.663H185.948V25.9168ZM42.3237 32.7266C39.2487 35.0556 37.54 38.0136 36.3365 43.091C35.2817 47.544 35.2222 48.8756 35.2526 67.3836C35.2879 88.3301 35.5455 91.1338 37.9134 96.324C39.6368 100.101 40.7841 101.196 44.4658 102.579C48.4629 104.078 59.7229 102.139 60.3258 99.8475C60.523 99.0977 60.6873 95.2816 60.6916 91.3676L60.6987 84.2514L53.5371 83.8805C47.8085 83.5833 46.2851 83.1641 45.9245 81.7818C45.6764 80.8316 45.4707 70.6595 45.4664 59.1766C45.4597 39.0952 45.1997 31.0137 44.5663 31.1773C44.4025 31.2199 43.3934 31.9168 42.3237 32.7266ZM47.9385 39.4511C48.0666 47.104 48.1676 47.8332 49.1458 48.1683C50.5621 48.6556 51.6503 52.6122 51.6503 57.2738C51.6503 60.9102 51.5803 61.0484 49.7454 61.0484H47.8404V67.3836V73.7188H54.8158H61.7912L61.5317 60.0797C61.1383 39.4442 59.7929 34.7803 53.5229 32.3199C51.8384 31.6588 49.8611 31.114 49.1291 31.1093L47.7985 31.1001L47.9385 39.4511ZM104.354 32.8118C101.317 34.7066 99.7422 37.6312 98.4402 43.7936C97.4592 48.4379 97.3696 50.4248 97.3792 67.3399C97.3877 82.86 97.5315 86.5678 98.2759 90.5348C99.2293 95.611 100.929 99.0677 103.512 101.187C105.243 102.607 116.693 103.012 120.399 101.783L122.609 101.05V92.5678V84.0855H116.033C111.109 84.0855 109.224 83.6755 108.532 82.4522C107.682 80.9513 107.589 78.8745 107.37 56.6299C107.239 43.3259 107.024 32.2013 106.893 31.9087C106.762 31.6162 105.619 32.0228 104.354 32.8118ZM109.751 39.5801V48.378H111.121C112.84 48.378 113.434 50.0908 113.839 56.2106L114.159 61.0484H111.955H109.751V67.3836V73.7188H116.919H124.087L123.793 63.6401C123.42 50.8568 122.771 42.8122 121.835 39.3578C120.762 35.3977 117.644 32.5123 113.442 31.5908L109.751 30.7822V39.5801ZM146.421 31.8442C145.766 32.1276 144.641 32.9166 143.92 33.5974C142.647 34.801 142.611 35.0844 142.611 43.8374V52.8391L144.159 53.2008L145.706 53.5613L145.835 78.0383L145.964 102.515H151.431H156.898L156.868 84.9494C156.817 55.5506 156.324 43.5229 154.974 38.7588C154.339 36.5162 153.362 34.1779 152.802 33.5605C151.502 32.1276 147.965 31.1773 146.421 31.8442ZM210.689 32.7519C207.806 34.6778 206.191 37.3755 204.887 42.4494C203.872 46.3979 203.807 47.8596 203.807 66.8077C203.807 86.1842 203.853 87.1622 204.997 92.0518C206.935 100.332 208.701 101.863 216.854 102.339C220.625 102.559 224.857 102.392 226.26 101.968L228.809 101.198V92.6415V84.0855H222.176C216.78 84.0855 215.403 83.7481 214.794 82.276C214.168 80.7613 214.046 77.0131 214.046 59.3828C214.046 39.1182 213.788 30.9838 213.153 31.2027C212.989 31.2602 211.88 31.9571 210.689 32.7519ZM216.524 39.2967C216.654 47.1086 216.752 47.832 217.732 48.1683C219.149 48.6556 220.237 52.6122 220.237 57.2738C220.237 60.9102 220.167 61.0484 218.332 61.0484H216.427V67.3836V73.7188H223.404H230.381L230.068 61.3364C229.896 54.5266 229.542 47.1017 229.283 44.8372C228.384 37.0022 225.503 32.9661 219.849 31.6185L216.383 30.7914L216.524 39.2967ZM243.334 31.7233C243.072 31.9191 241.411 32.419 239.643 32.8337L236.429 33.587V42.4471V51.306L242.977 50.9397C246.858 50.7232 249.816 51.048 250.24 51.7368C250.829 52.6951 250.982 57.2438 251.114 77.7066L251.274 102.515H256.541H261.808L261.562 74.5251C261.293 43.9226 261.145 42.1787 258.338 36.4666C257.536 34.8321 256.189 33.2426 255.345 32.9339C253.361 32.2071 243.955 31.2591 243.334 31.7233ZM273.198 32.1794C269.836 34.2228 268.036 41.627 267.277 56.5343C266.887 64.1964 266.898 69.6274 267.321 77.9415C268.325 97.7051 270.089 102.966 275.718 102.984C277.29 102.989 279.164 102.379 279.885 101.631C281.157 100.308 281.195 100.004 281.195 91.098V81.9281L279.647 81.5664L278.099 81.2059V67.4262V53.6477L279.647 52.5742C281.158 51.526 281.195 51.3452 281.188 45.0434C281.18 37.1704 280.835 33.7586 279.963 32.9489C278.617 31.6991 274.717 31.2556 273.198 32.1794ZM304.917 32.9212C301.134 35.7375 299.457 43.8834 299.898 57.3049C300.305 69.7069 301.866 73.0657 308.442 75.7012C310.874 76.6757 313.132 77.9876 313.459 78.6165C313.868 79.4009 314.055 83.5545 314.055 91.8445V103.929L316.317 103.13C322.095 101.092 324.705 91.075 323.837 74.2763C323.278 63.4466 321.254 59.8251 314.769 58.0444C309.595 56.623 309.769 57.1367 309.769 43.2234V31.1001L308.459 31.1808C307.738 31.2245 306.145 32.0078 304.917 32.9212ZM312.15 40.8909V50.6817H315.179C316.845 50.6817 319.202 51.0111 320.417 51.4143L322.627 52.1469V42.9262V33.7056L318.428 32.4029C311.6 30.2846 312.15 29.5405 312.15 40.8909ZM66.894 54.4252C68.3894 66.6211 70.3134 82.4303 71.1701 89.5569L72.7279 102.515L77.0716 102.498C79.4604 102.488 81.6544 102.099 81.9468 101.634C82.4473 100.838 81.1506 87.8556 76.1387 43.4826L74.87 32.252H69.5224H64.1748L66.894 54.4252ZM83.5465 38.8752C83.2407 42.5185 82.5778 49.8466 82.0725 55.1613L81.1544 64.8242L83.1164 82.2299C84.1956 91.803 85.2019 100.119 85.3528 100.71C85.7414 102.234 86.3825 97.4839 94.3222 34.2677C94.5527 32.4328 94.105 32.252 89.3384 32.252H84.1018L83.5465 38.8752ZM129.753 67.3836V102.515H134.991H140.23V67.3836V32.252H134.991H129.753V67.3836ZM240.239 62.1196C236.105 64.1193 235.294 67.2373 235.275 81.2059C235.265 88.9187 235.474 92.5264 236.091 95.2966C237.665 102.357 241.76 105.105 246.132 102.031L248.811 100.147V93.396V86.6461L247.148 85.8905C245.32 85.0623 244.65 81.8671 245.197 76.5985C245.444 74.2164 245.782 73.7188 247.153 73.7188H248.811V67.3836V61.0484L245.358 61.1809C243.459 61.2534 241.155 61.6762 240.239 62.1196ZM0.693356 90.2503C0.693356 101.869 0.824796 102.058 9.62273 103.113L16.409 103.926V93.4294V82.9337H10.0394C6.53626 82.9337 3.00023 82.61 2.18158 82.2138L0.693356 81.4939V90.2503ZM300.72 91.4908C300.72 100.038 301.395 102.511 303.73 102.523C304.563 102.528 306.691 102.862 308.459 103.266L311.674 104V94.0433V84.0855H306.197H300.72V91.4908Z" fill="#BFC5CC"/>
</svg>
